<?xml version="1.0" encoding="utf-8"?>
<!-- Generator: Adobe Illustrator 17.1.0, SVG Export Plug-In . SVG Version: 6.00 Build 0)  -->
<!DOCTYPE svg PUBLIC "-//W3C//DTD SVG 1.1//EN" "http://www.w3.org/Graphics/SVG/1.1/DTD/svg11.dtd">
<svg version="1.1" id="Capa_1" xmlns="http://www.w3.org/2000/svg" xmlns:xlink="http://www.w3.org/1999/xlink" x="0px" y="0px"
	 viewBox="0 0 512 512" enable-background="new 0 0 512 512" xml:space="preserve">
<radialGradient id="SVGID_1_" cx="186.3956" cy="169.414" r="136.7994" gradientUnits="userSpaceOnUse">
	<stop  offset="0.1684" style="stop-color:#C2181E"/>
	<stop  offset="0.7653" style="stop-color:#DE2925"/>
</radialGradient>
<path fill="url(#SVGID_1_)" d="M192.1,226.1c35.3-45,90.2-74,152-74c9.2,0,18.3,0.6,27.3,1.9v-41.2c-27.9,25.1-100.2,43-185.2,43
	c-84.4,0-156.6-17.7-184.8-42.6v53C15.5,223.9,190.2,226.2,192.1,226.1z"/>
<radialGradient id="SVGID_2_" cx="88.6254" cy="264.0996" r="73.6598" gradientUnits="userSpaceOnUse">
	<stop  offset="0.1684" style="stop-color:#C2181E"/>
	<stop  offset="0.7653" style="stop-color:#DE2925"/>
</radialGradient>
<path fill="url(#SVGID_2_)" d="M1.3,207.5l-0.1,53.8C8,291.2,71,315.4,152.6,320.7c3.1-25.4,11.3-49.3,23.4-70.6
	C95.9,248.7,28.3,231.5,1.3,207.5z"/>
<radialGradient id="SVGID_3_" cx="83.1386" cy="360.2499" r="70.7068" gradientUnits="userSpaceOnUse">
	<stop  offset="0.1684" style="stop-color:#C2181E"/>
	<stop  offset="0.7653" style="stop-color:#DE2925"/>
</radialGradient>
<path fill="url(#SVGID_3_)" d="M1.2,303.1l-0.1,51.2c0.3-0.3,0.6-0.6,0.9-0.8c2,33,72.5,60.1,163.1,64c-9.1-22.4-14-46.7-14-72.3
	V345C82,340.7,25.2,324.6,1.2,303.1z"/>
<radialGradient id="SVGID_4_" cx="121.5987" cy="454.7279" r="94.345" gradientUnits="userSpaceOnUse">
	<stop  offset="0.1684" style="stop-color:#C2181E"/>
	<stop  offset="0.7653" style="stop-color:#DE2925"/>
</radialGradient>
<path fill="url(#SVGID_4_)" d="M177.2,441.8c-81.7-1.4-150.4-19.4-176.1-44.1L1,445.9c0,36.4,82.9,65.8,185.2,65.8
	c19.5,0,38.4-1,56-3C215.4,492,193.1,469,177.2,441.8z"/>
<radialGradient id="SVGID_5_" cx="186.1866" cy="65.7375" r="139.0964" gradientUnits="userSpaceOnUse">
	<stop  offset="0.1684" style="stop-color:#C2181E"/>
	<stop  offset="0.7653" style="stop-color:#DE2925"/>
</radialGradient>
<ellipse fill="url(#SVGID_5_)" cx="186.2" cy="65.7" rx="185.4" ry="65.7"/>
<path fill="#F4F5F9" d="M189.5,7c-37.9,0-68.7,26-68.7,58.1s30.7,58.1,68.7,58.1s68.7-26,68.7-58.1S227.4,7,189.5,7z M195.8,96.1
	v3.7c0,2.9-2.8,5.3-6.3,5.3s-6.3-2.4-6.3-5.3v-3.7c-3.7-0.9-7-2.7-9.7-5.1c-2.4-2.1-2.2-5.5,0.3-7.5c2.5-2,6.4-1.8,8.8,0.2
	c2.7,2.2,7.3,2.5,7.5,2.5c4.9-0.3,8.7-3.7,8.7-7.9c0-4.4-4.2-8-9.4-8c-12.1,0-21.9-8.3-21.9-18.5c0-8.4,6.6-15.5,15.6-17.8v-3.7
	c0-2.9,2.8-5.3,6.3-5.3s6.3,2.4,6.3,5.3v3.7c3.7,0.9,7,2.7,9.7,5.1c2.4,2.1,2.2,5.5-0.3,7.5c-2.5,2-6.7,2.1-8.8-0.2
	c-2.3-2.4-7.3-2.5-7.5-2.5c-4.9,0.3-8.7,3.7-8.7,7.9c0,4.4,4.2,8,9.4,8c12.1,0,21.9,8.3,21.9,18.5C211.4,86.7,204.8,93.8,195.8,96.1
	z"/>
<path fill="#FFDA44" d="M344.9,175.9c-92.3,0-167.1,74.8-167.1,167.1s74.8,167,167.1,167S512,435.2,512,342.9
	S437.2,175.9,344.9,175.9z M360.1,432.1v10.6c0,8.5-6.8,15.3-15.3,15.3c-8.5,0-15.3-6.8-15.3-15.3v-10.6
	c-8.9-2.7-17.1-7.6-23.6-14.5c-5.7-6.2-5.4-15.8,0.6-21.5c6.2-5.7,15.5-5.1,21.5,0.6c6.7,6.4,17.8,7.1,18.3,7.1
	c11.8-0.8,21.2-10.8,21.2-22.8c0-12.5-10.2-22.9-22.8-22.9c-29.4,0-53.3-23.9-53.3-53.3c0-24.1,16.1-44.5,38-51.1v-10.6
	c0-8.5,6.8-15.3,15.3-15.3c8.5,0,15.3,6.8,15.3,15.3v10.6c8.9,2.7,17.1,7.6,23.6,14.5c5.7,6.2,5.4,15.8-0.6,21.5
	c-6.2,5.7-16.3,6-21.5-0.6c-5.5-7-17.8-7.1-18.3-7.1c-11.8,0.8-21.2,10.8-21.2,22.8c0,12.5,10.2,22.9,22.8,22.9
	c29.4,0,53.3,23.9,53.3,53.3C398.2,405.2,382.1,425.6,360.1,432.1z"/>
<radialGradient id="SVGID_6_" cx="343" cy="343" r="167" gradientUnits="userSpaceOnUse">
	<stop  offset="0.1684" style="stop-color:#C2181E"/>
	<stop  offset="0.7653" style="stop-color:#DE2925"/>
</radialGradient>
<circle fill="url(#SVGID_6_)" cx="343" cy="343" r="167"/>
<polygon fill="#FFFFFF" points="269.9,251.2 441,342 269.9,432.8 "/>
</svg>
